<!DOCTYPE svg PUBLIC "-//W3C//DTD SVG 1.1//EN" "http://www.w3.org/Graphics/SVG/1.1/DTD/svg11.dtd">
<!-- Uploaded to: SVG Repo, www.svgrepo.com, Transformed by: SVG Repo Mixer Tools -->
<svg height="800px" width="800px" version="1.1" id="Layer_1" xmlns="http://www.w3.org/2000/svg" xmlns:xlink="http://www.w3.org/1999/xlink" viewBox="0 0 503.322 503.322" xml:space="preserve" fill="#000000">
<g id="SVGRepo_bgCarrier" stroke-width="0"/>
<g id="SVGRepo_tracerCarrier" stroke-linecap="round" stroke-linejoin="round"/>
<g id="SVGRepo_iconCarrier"> <g> <path style="fill:#25B99A;" d="M485.966,147.525H379.444C349.21,110.471,303.217,86.78,251.661,86.78 s-97.549,23.691-127.783,60.746H17.356C7.775,147.525,0,155.292,0,164.881v173.559c0,9.589,7.775,17.356,17.356,17.356h106.522 c30.234,37.055,76.227,60.746,127.783,60.746s97.549-23.691,127.783-60.746h106.522c9.58,0,17.356-7.767,17.356-17.356V164.881 C503.322,155.292,495.547,147.525,485.966,147.525"/> <path style="fill:#198D71;" d="M251.661,381.831c-39.233,0-76.019-17.486-100.89-47.98l-10.422-12.765H43.39 c-4.79,0-8.678-3.888-8.678-8.678V190.915c0-4.79,3.888-8.678,8.678-8.678h96.959l10.422-12.765 c24.871-30.494,61.657-47.98,100.89-47.98s76.019,17.486,100.89,47.98l10.422,12.765h96.959c4.79,0,8.678,3.888,8.678,8.678 v121.492c0,4.79-3.888,8.678-8.678,8.678h-96.959l-10.422,12.765C327.68,364.344,290.894,381.831,251.661,381.831"/> <polygon style="fill:#FFFFFF;" points="286.373,173.559 286.373,234.305 216.949,234.305 216.949,173.559 182.237,173.559 182.237,329.763 216.949,329.763 216.949,269.017 286.373,269.017 286.373,329.763 321.085,329.763 321.085,173.559 "/> </g> </g>
</svg>